<svg xmlns="http://www.w3.org/2000/svg" viewBox="0 0 155.91 74.42"><defs><style>.cls-1{fill:#fff;}</style></defs><g id="圖層_2" data-name="圖層 2"><g id="圖層_1-2" data-name="圖層 1"><path class="cls-1" d="M50,49.54a3.25,3.25,0,0,1-.4,1.6,1.25,1.25,0,0,1-1.12.73L46,52.32a7.61,7.61,0,0,1-1.17-.11L43.61,52c-.37-.05-.64-.32-.84-.81a8.18,8.18,0,0,1-.43-2.12q0-5.48-.3-9.64Q41.17,27,41.17,25L9,25.58V36c0,1.5,0,2.69.07,3.56q.36,6.39.36,7.26a13.65,13.65,0,0,1-.29,3.34c-.34,1.16-1,1.75-2,1.75a11.27,11.27,0,0,0-1.82.22,11.49,11.49,0,0,1-1.81.23,4,4,0,0,1-.91-.14c-.36-.1-.69-.2-1-.3A2,2,0,0,1,.36,49.7L.65,49V39.71q0-5.24-.32-17.26T0,6.49V2.19A9.54,9.54,0,0,1,.11.58.63.63,0,0,1,.8,0H5.74A2.1,2.1,0,0,1,7.08.58a1.6,1.6,0,0,1,.69,1.16,58.9,58.9,0,0,1,.65,7.78Q8.86,21.58,9,23.11L41.17,22c0-.63-.05-1.78-.14-3.45s-.15-2.68-.15-3q0-3.27.11-7.52c.08-2.84.13-5.15.18-6.94,0-.2.15-.41.44-.66A1.37,1.37,0,0,1,42.48,0h4.65a2,2,0,0,1,1.45,1.09A4.24,4.24,0,0,1,49,3q0,7,.21,14.64t.48,16.79Q50,43.57,50,49Z"/><path class="cls-1" d="M74.94,48.38l-.14.29-2.45,2.9a3,3,0,0,1-2,.58c-1.39.15-3,.25-4.86.3l-3,.07H58.3a1,1,0,0,1-1.15-1.17V20.06c.14-.68.31-1.06.51-1.16a3.23,3.23,0,0,1,1.81-.44q3.86,0,8.1,0a42.46,42.46,0,0,1,6.35.4c.24,0,.45.23.62.69a3.84,3.84,0,0,1,.26,1.34,1.24,1.24,0,0,1-.08.37.5.5,0,0,1-.07.21c-2-.29-3.93-.55-5.85-.8a38,38,0,0,0-4-.36h-.44c-.77,0-1.16.34-1.16,1s-.17,1.79-.22,3.34S63,27.78,63,29.28c0,.44,0,.86,0,1.27s.31.67.84.77c1.11,0,2.32,0,3.63-.05a10,10,0,0,0,3.27-.54h1a.51.51,0,0,1,.57.59v.87l-.14,1.59a.4.4,0,0,1-.15.29,1,1,0,0,1-.14.15L71.53,34a2.21,2.21,0,0,0-1-.22,25.83,25.83,0,0,1-2.68-.21,24.34,24.34,0,0,0-2.47-.22H64.26a5.23,5.23,0,0,0-1.16.29c-.1,0-.14.29-.14.73,0,.87-.05,2.52-.15,5s-.14,3.76-.14,4L63,48.24c0,1.35.52,2,1.57,2l.72-.15a29.6,29.6,0,0,0,4.38-.94L73.79,48h.43a1,1,0,0,1,.51.21A.41.41,0,0,0,74.94,48.38Z"/><path class="cls-1" d="M112.7,50.4a3.21,3.21,0,0,1-.25,1.28,1.09,1.09,0,0,1-.91.62l-1.6.15-1.31-.15a.9.9,0,0,1-.58-.44,5.31,5.31,0,0,1-.43-1.46q0-3.3-.37-8.13t-.36-7.61L86.05,35V49.83a4.86,4.86,0,0,1-.24,1.71,1,1,0,0,1-1,.61l-2.35.3-1.1-.3a1.24,1.24,0,0,1-.83-1.31V44.42q0-3.57-.14-10.29T80.24,24V19.76c0-1,.15-1.46.44-1.46H84a1.45,1.45,0,0,1,1.16,1.16,60.3,60.3,0,0,1,.51,6.87q.14,4.62.36,7l20.84-.73V19c0-.49.34-.73,1-.73h2.9a1.08,1.08,0,0,1,.87.7,3,3,0,0,1,.29,1.35c0,2.83.08,6.16.22,10q.51,13.41.51,17.58Z"/><path class="cls-1" d="M155.91,35.09c-.35,1.5-.66,3-.95,4.5A19.47,19.47,0,0,1,149.8,48q-4.86,4.57-12.56,4.57h-.43q-7.84,0-12.6-4.83a16.71,16.71,0,0,1-4.76-12.23,16.11,16.11,0,0,1,5.38-12.13,19,19,0,0,1,13.57-5.08q8.21,0,13,4.86A16.26,16.26,0,0,1,155.91,35.09Zm-4.87,0A15.22,15.22,0,0,0,147.77,25a12,12,0,0,0-9.66-4.21h-.29q-6.67,0-10.38,4.72a14.05,14.05,0,0,0-3,8.86q0,7.91,5.16,12.41a12.32,12.32,0,0,0,8.13,3.49,12.08,12.08,0,0,0,9.4-4.54A15.68,15.68,0,0,0,151,35.09Z"/><path class="cls-1" d="M9.44,70.29H8V65.11c0-1.87-.7-2.81-2.09-2.81a2.29,2.29,0,0,0-1.78.82,3,3,0,0,0-.72,2.08v5.09H2V57H3.41V62.8h0a3.27,3.27,0,0,1,3-1.71c2,0,3,1.22,3,3.66Z"/><path class="cls-1" d="M22.43,66.16H16.08a3.3,3.3,0,0,0,.81,2.31,2.75,2.75,0,0,0,2.12.82,4.4,4.4,0,0,0,2.79-1v1.35a5.23,5.23,0,0,1-3.13.86,3.8,3.8,0,0,1-3-1.22,5,5,0,0,1-1.09-3.45,4.88,4.88,0,0,1,1.19-3.42,3.83,3.83,0,0,1,3-1.32,3.38,3.38,0,0,1,2.73,1.15,4.76,4.76,0,0,1,1,3.16ZM21,64.94a2.92,2.92,0,0,0-.6-1.94,2.06,2.06,0,0,0-1.64-.7A2.34,2.34,0,0,0,17,63a3.27,3.27,0,0,0-.88,1.91Z"/><path class="cls-1" d="M34.09,70.29H32.65v-1.4h0a3,3,0,0,1-2.76,1.61,3,3,0,0,1-2.1-.71A2.44,2.44,0,0,1,27,67.9c0-1.67,1-2.65,3-2.93l2.69-.37c0-1.53-.62-2.3-1.85-2.3a4.41,4.41,0,0,0-2.93,1.11V61.94a5.57,5.57,0,0,1,3.05-.85q3.16,0,3.17,3.36Zm-1.44-4.55-2.17.3a3.6,3.6,0,0,0-1.51.5,1.44,1.44,0,0,0-.51,1.26,1.36,1.36,0,0,0,.47,1.07,1.82,1.82,0,0,0,1.25.42A2.3,2.3,0,0,0,32,68.54a2.66,2.66,0,0,0,.7-1.9Z"/><path class="cls-1" d="M41.3,70.29H39.86V57H41.3Z"/><path class="cls-1" d="M51.43,70.2a2.75,2.75,0,0,1-1.34.28c-1.57,0-2.36-.88-2.36-2.63V62.54H46.18V61.31h1.55v-2.2l1.44-.46v2.66h2.26v1.23H49.17V67.6a2.07,2.07,0,0,0,.31,1.29,1.23,1.23,0,0,0,1,.38,1.49,1.49,0,0,0,.94-.3Z"/><path class="cls-1" d="M63.87,70.29H62.43V65.11c0-1.87-.7-2.81-2.09-2.81a2.25,2.25,0,0,0-1.77.82,3,3,0,0,0-.72,2.08v5.09H56.41V57h1.44V62.8h0a3.27,3.27,0,0,1,2.95-1.71q3,0,3,3.66Z"/><path class="cls-1" d="M88.84,70.49a2.59,2.59,0,0,1-.88-.13,2.46,2.46,0,0,1-.71-.39,4,4,0,0,1-.63-.61c-.2-.24-.41-.51-.63-.82a6.36,6.36,0,0,1-.81.73,6.58,6.58,0,0,1-1,.63,6.13,6.13,0,0,1-1.23.43,5.94,5.94,0,0,1-1.44.16,6.26,6.26,0,0,1-1.74-.23,3.93,3.93,0,0,1-1.35-.7,3.18,3.18,0,0,1-.88-1.14A3.92,3.92,0,0,1,78,64.57,5.52,5.52,0,0,1,80.12,63a5.21,5.21,0,0,1-.52-.45,3.12,3.12,0,0,1-.47-.6,3.19,3.19,0,0,1-.34-.72,3.07,3.07,0,0,1-.12-.88,2.77,2.77,0,0,1,.25-1.22,2.59,2.59,0,0,1,.69-.91,3.1,3.1,0,0,1,1-.56,4.47,4.47,0,0,1,1.29-.18,4.06,4.06,0,0,1,1.25.18,3.1,3.1,0,0,1,1,.54,2.52,2.52,0,0,1,.63.85,2.79,2.79,0,0,1-.37,2.84,4.52,4.52,0,0,1-1.8,1.19,5.13,5.13,0,0,1,1.09.58,6.73,6.73,0,0,1,.91.77,8.39,8.39,0,0,1,.78.9c.24.32.47.66.71,1a7.5,7.5,0,0,0,1.07-2.18,8.66,8.66,0,0,0,.36-2.51,4,4,0,0,0,0-.62c0-.2-.06-.39-.11-.59h1.4a4.05,4.05,0,0,1,.08.55c0,.17,0,.38,0,.62a8.08,8.08,0,0,1-.17,1.61,10.57,10.57,0,0,1-1.1,3,13.4,13.4,0,0,1-.78,1.25c.2.28.39.53.56.74a4.21,4.21,0,0,0,.51.52,1.84,1.84,0,0,0,.54.31,1.72,1.72,0,0,0,.62.1,2.5,2.5,0,0,0,.54-.07l.56-.18v1.34a3.57,3.57,0,0,1-.66.18A4,4,0,0,1,88.84,70.49Zm-7.36-1.25a4.7,4.7,0,0,0,1.22-.14,5.09,5.09,0,0,0,1-.38,4.58,4.58,0,0,0,.86-.57,5.57,5.57,0,0,0,.7-.67c-.36-.55-.69-1-1-1.42a7.84,7.84,0,0,0-.91-1,5.67,5.67,0,0,0-1-.73,7.18,7.18,0,0,0-1.21-.57,8,8,0,0,0-1,.48,3.57,3.57,0,0,0-.8.64,2.79,2.79,0,0,0-.53.84,3,3,0,0,0-.19,1.13,2.39,2.39,0,0,0,.22,1.06,2,2,0,0,0,.6.76,2.58,2.58,0,0,0,.89.45A3.53,3.53,0,0,0,81.48,69.24Zm2.19-8.95A1.51,1.51,0,0,0,83.09,59a1.61,1.61,0,0,0-.55-.29,2.2,2.2,0,0,0-.61-.09,2,2,0,0,0-1.37.46A1.59,1.59,0,0,0,80,60.37a2.11,2.11,0,0,0,.1.68,2.55,2.55,0,0,0,.31.59,2.62,2.62,0,0,0,.46.48,3.41,3.41,0,0,0,.57.36,4.69,4.69,0,0,0,1.64-.9A1.67,1.67,0,0,0,83.67,60.29Z"/><path class="cls-1" d="M110.49,70.29h-1.44V65.11c0-1.87-.7-2.81-2.09-2.81a2.25,2.25,0,0,0-1.77.82,3,3,0,0,0-.72,2.08v5.09H103V57h1.44V62.8h0a3.25,3.25,0,0,1,2.94-1.71q3,0,3,3.66Z"/><path class="cls-1" d="M120,70.5a4.16,4.16,0,0,1-3.18-1.26,4.67,4.67,0,0,1-1.19-3.34,4.82,4.82,0,0,1,1.24-3.53,4.44,4.44,0,0,1,3.34-1.28,4.05,4.05,0,0,1,3.14,1.24,4.93,4.93,0,0,1,1.13,3.43,4.85,4.85,0,0,1-1.22,3.45A4.26,4.26,0,0,1,120,70.5Zm.11-8.2a2.75,2.75,0,0,0-2.2,1,3.9,3.9,0,0,0-.8,2.6,3.69,3.69,0,0,0,.81,2.52,2.81,2.81,0,0,0,2.19.92,2.62,2.62,0,0,0,2.14-.9,3.94,3.94,0,0,0,.76-2.57,4,4,0,0,0-.76-2.6A2.61,2.61,0,0,0,120.12,62.3Z"/><path class="cls-1" d="M131.32,69h0v5.43h-1.44V61.31h1.44v1.58h0a3.4,3.4,0,0,1,3.1-1.8,3.32,3.32,0,0,1,2.72,1.21,5,5,0,0,1,1,3.23,5.6,5.6,0,0,1-1.1,3.62,3.65,3.65,0,0,1-3,1.35A3,3,0,0,1,131.32,69Zm0-3.62v1.25a2.62,2.62,0,0,0,.73,1.89,2.57,2.57,0,0,0,3.88-.22,4.57,4.57,0,0,0,.74-2.78,3.56,3.56,0,0,0-.69-2.35,2.28,2.28,0,0,0-1.87-.86,2.56,2.56,0,0,0-2,.88A3.2,3.2,0,0,0,131.28,65.37Z"/><path class="cls-1" d="M150.69,66.16h-6.35a3.3,3.3,0,0,0,.81,2.31,2.75,2.75,0,0,0,2.12.82,4.4,4.4,0,0,0,2.79-1v1.35a5.23,5.23,0,0,1-3.13.86,3.8,3.8,0,0,1-3-1.22,5,5,0,0,1-1.09-3.45A4.93,4.93,0,0,1,144,62.41a3.85,3.85,0,0,1,3-1.32,3.38,3.38,0,0,1,2.73,1.15,4.76,4.76,0,0,1,1,3.16Zm-1.48-1.22a2.92,2.92,0,0,0-.6-1.94,2.05,2.05,0,0,0-1.65-.7,2.34,2.34,0,0,0-1.72.73,3.27,3.27,0,0,0-.88,1.91Z"/></g></g></svg>